<?xml version="1.0" encoding="utf-8"?>
<!-- Generator: Adobe Illustrator 13.0.0, SVG Export Plug-In . SVG Version: 6.00 Build 14948)  -->
<!DOCTYPE svg PUBLIC "-//W3C//DTD SVG 1.1//EN" "http://www.w3.org/Graphics/SVG/1.1/DTD/svg11.dtd">
<svg version="1.1" id="レイヤー_1" xmlns="http://www.w3.org/2000/svg" xmlns:xlink="http://www.w3.org/1999/xlink" x="0px"
	 y="0px" width="1000px" height="1000px" viewBox="0 0 1000 1000" enable-background="new 0 0 1000 1000" xml:space="preserve">
<path fill="#CCCCCC" d="M974.5,499.5c0-262.336-212.664-475-475-475c-262.335,0-475,212.664-475,475s212.665,475,475,475
	C761.836,974.5,974.5,761.836,974.5,499.5z"/>
<path fill="#FFFFFF" d="M182.539,369.537c25.385-25.384,66.541-25.384,91.926,0l0,0l224.038,224.038l224.039-224.038h-0.003
	c25.384-25.384,66.542-25.384,91.926,0l0,0c25.384,25.385,25.384,66.539,0,91.924l0,0l-270.001,270
	c-12.102,12.103-28.845,19.037-45.962,19.037l0,0c-17.116,0-33.856-6.935-45.96-19.037l0,0l-270.001-270
	c-12.692-12.692-19.038-29.327-19.038-45.962l0,0C163.501,398.864,169.847,382.229,182.539,369.537L182.539,369.537z"/>
</svg>
