<?xml version="1.0" encoding="utf-8"?>
<!-- Generator: Adobe Illustrator 13.0.0, SVG Export Plug-In . SVG Version: 6.00 Build 14948)  -->
<!DOCTYPE svg PUBLIC "-//W3C//DTD SVG 1.1//EN" "http://www.w3.org/Graphics/SVG/1.1/DTD/svg11.dtd">
<svg version="1.1" id="レイヤー_1" xmlns="http://www.w3.org/2000/svg" xmlns:xlink="http://www.w3.org/1999/xlink" x="0px"
	 y="0px" width="1000px" height="1000px" viewBox="0 0 1000 1000" enable-background="new 0 0 1000 1000" xml:space="preserve">
<path fill="#CCCCCC" d="M499.5,24.5c-262.335,0-475,212.665-475,475c0,262.335,212.665,475,475,475c262.336,0,475-212.665,475-475
	C974.5,237.165,761.836,24.5,499.5,24.5z"/>
<path fill="#FFFFFF" d="M369.538,816.461c-25.384-25.385-25.384-66.541,0-91.926l0,0l224.038-224.038L369.538,276.459v0.002
	c-25.384-25.384-25.384-66.542,0-91.926l0,0c25.384-25.384,66.539-25.384,91.923,0l0,0l270,270.001
	c12.103,12.102,19.037,28.845,19.037,45.962l0,0c0,17.116-6.935,33.856-19.037,45.96l0,0l-270,270.001
	c-12.692,12.692-29.327,19.038-45.962,19.038l0,0C398.864,835.499,382.229,829.153,369.538,816.461L369.538,816.461z"/>
</svg>
